{
	"asset":{
		"generator":"Khronos glTF Blender I/O v4.2.70",
		"version":"2.0"
	},
	"scene":0,
	"scenes":[
		{
			"name":"Scene",
			"nodes":[
				6
			]
		}
	],
	"nodes":[
		{
			"name":"Bone.004",
			"rotation":[
				-1.1755170525569378e-32,
				-1.0842126280484471e-16,
				-1.0842126280484471e-16,
				1
			],
			"translation":[
				0,
				1,
				0
			]
		},
		{
			"children":[
				0
			],
			"name":"Bone.003",
			"rotation":[
				1.3727624332310252e-32,
				1.1716493245644464e-16,
				1.1716493245644464e-16,
				1
			],
			"translation":[
				0,
				1,
				8.816207631167156e-39
			]
		},
		{
			"children":[
				1
			],
			"name":"Bone.002",
			"rotation":[
				1.724239358357117e-32,
				-2.0110401817499408e-17,
				-2.0110401817499408e-17,
				1
			],
			"translation":[
				0,
				1,
				-2.938735877055719e-39
			]
		},
		{
			"children":[
				2
			],
			"name":"Bone.001",
			"rotation":[
				-3.0970014977145545e-32,
				-9.705453063894523e-17,
				-9.705453063894523e-17,
				1
			],
			"translation":[
				0,
				1,
				0
			]
		},
		{
			"children":[
				3
			],
			"name":"Bone"
		},
		{
			"mesh":0,
			"name":"Cylinder",
			"skin":0
		},
		{
			"children":[
				5,
				4
			],
			"name":"Armature"
		}
	],
	"animations":[
		{
			"channels":[
				{
					"sampler":0,
					"target":{
						"node":4,
						"path":"translation"
					}
				},
				{
					"sampler":1,
					"target":{
						"node":4,
						"path":"rotation"
					}
				},
				{
					"sampler":2,
					"target":{
						"node":4,
						"path":"scale"
					}
				},
				{
					"sampler":3,
					"target":{
						"node":3,
						"path":"translation"
					}
				},
				{
					"sampler":4,
					"target":{
						"node":3,
						"path":"rotation"
					}
				},
				{
					"sampler":5,
					"target":{
						"node":3,
						"path":"scale"
					}
				},
				{
					"sampler":6,
					"target":{
						"node":2,
						"path":"translation"
					}
				},
				{
					"sampler":7,
					"target":{
						"node":2,
						"path":"rotation"
					}
				},
				{
					"sampler":8,
					"target":{
						"node":2,
						"path":"scale"
					}
				},
				{
					"sampler":9,
					"target":{
						"node":1,
						"path":"translation"
					}
				},
				{
					"sampler":10,
					"target":{
						"node":1,
						"path":"rotation"
					}
				},
				{
					"sampler":11,
					"target":{
						"node":1,
						"path":"scale"
					}
				},
				{
					"sampler":12,
					"target":{
						"node":0,
						"path":"translation"
					}
				},
				{
					"sampler":13,
					"target":{
						"node":0,
						"path":"rotation"
					}
				},
				{
					"sampler":14,
					"target":{
						"node":0,
						"path":"scale"
					}
				}
			],
			"name":"ArmatureAction.001",
			"samplers":[
				{
					"input":7,
					"interpolation":"LINEAR",
					"output":8
				},
				{
					"input":7,
					"interpolation":"LINEAR",
					"output":9
				},
				{
					"input":10,
					"interpolation":"STEP",
					"output":11
				},
				{
					"input":10,
					"interpolation":"STEP",
					"output":12
				},
				{
					"input":7,
					"interpolation":"LINEAR",
					"output":13
				},
				{
					"input":10,
					"interpolation":"STEP",
					"output":14
				},
				{
					"input":10,
					"interpolation":"STEP",
					"output":15
				},
				{
					"input":7,
					"interpolation":"LINEAR",
					"output":16
				},
				{
					"input":10,
					"interpolation":"STEP",
					"output":17
				},
				{
					"input":10,
					"interpolation":"STEP",
					"output":18
				},
				{
					"input":7,
					"interpolation":"LINEAR",
					"output":19
				},
				{
					"input":10,
					"interpolation":"STEP",
					"output":20
				},
				{
					"input":10,
					"interpolation":"STEP",
					"output":21
				},
				{
					"input":7,
					"interpolation":"LINEAR",
					"output":22
				},
				{
					"input":10,
					"interpolation":"STEP",
					"output":23
				}
			]
		}
	],
	"materials":[
		{
			"doubleSided":true,
			"name":"Material.001",
			"pbrMetallicRoughness":{
				"baseColorTexture":{
					"index":0
				},
				"metallicFactor":0,
				"roughnessFactor":0.5
			}
		}
	],
	"meshes":[
		{
			"name":"Cylinder",
			"primitives":[
				{
					"attributes":{
						"POSITION":0,
						"NORMAL":1,
						"TEXCOORD_0":2,
						"JOINTS_0":3,
						"WEIGHTS_0":4
					},
					"indices":5,
					"material":0
				}
			]
		}
	],
	"textures":[
		{
			"sampler":0,
			"source":0
		}
	],
	"images":[
		{
			"bufferView":6,
			"mimeType":"image/png",
			"name":"BakeTarget"
		}
	],
	"skins":[
		{
			"inverseBindMatrices":6,
			"joints":[
				4,
				3,
				2,
				1,
				0
			],
			"name":"Armature"
		}
	],
	"accessors":[
		{
			"bufferView":0,
			"componentType":5126,
			"count":625,
			"max":[
				0.75,
				5,
				0.75
			],
			"min":[
				-0.75,
				0,
				-0.75
			],
			"type":"VEC3"
		},
		{
			"bufferView":1,
			"componentType":5126,
			"count":625,
			"type":"VEC3"
		},
		{
			"bufferView":2,
			"componentType":5126,
			"count":625,
			"type":"VEC2"
		},
		{
			"bufferView":3,
			"componentType":5121,
			"count":625,
			"type":"VEC4"
		},
		{
			"bufferView":4,
			"componentType":5126,
			"count":625,
			"type":"VEC4"
		},
		{
			"bufferView":5,
			"componentType":5123,
			"count":3252,
			"type":"SCALAR"
		},
		{
			"bufferView":7,
			"componentType":5126,
			"count":5,
			"type":"MAT4"
		},
		{
			"bufferView":8,
			"componentType":5126,
			"count":120,
			"max":[
				5
			],
			"min":[
				0.041666666666666664
			],
			"type":"SCALAR"
		},
		{
			"bufferView":9,
			"componentType":5126,
			"count":120,
			"type":"VEC3"
		},
		{
			"bufferView":10,
			"componentType":5126,
			"count":120,
			"type":"VEC4"
		},
		{
			"bufferView":11,
			"componentType":5126,
			"count":2,
			"max":[
				5
			],
			"min":[
				0.041666666666666664
			],
			"type":"SCALAR"
		},
		{
			"bufferView":12,
			"componentType":5126,
			"count":2,
			"type":"VEC3"
		},
		{
			"bufferView":13,
			"componentType":5126,
			"count":2,
			"type":"VEC3"
		},
		{
			"bufferView":14,
			"componentType":5126,
			"count":120,
			"type":"VEC4"
		},
		{
			"bufferView":15,
			"componentType":5126,
			"count":2,
			"type":"VEC3"
		},
		{
			"bufferView":16,
			"componentType":5126,
			"count":2,
			"type":"VEC3"
		},
		{
			"bufferView":17,
			"componentType":5126,
			"count":120,
			"type":"VEC4"
		},
		{
			"bufferView":18,
			"componentType":5126,
			"count":2,
			"type":"VEC3"
		},
		{
			"bufferView":19,
			"componentType":5126,
			"count":2,
			"type":"VEC3"
		},
		{
			"bufferView":20,
			"componentType":5126,
			"count":120,
			"type":"VEC4"
		},
		{
			"bufferView":21,
			"componentType":5126,
			"count":2,
			"type":"VEC3"
		},
		{
			"bufferView":22,
			"componentType":5126,
			"count":2,
			"type":"VEC3"
		},
		{
			"bufferView":23,
			"componentType":5126,
			"count":120,
			"type":"VEC4"
		},
		{
			"bufferView":24,
			"componentType":5126,
			"count":2,
			"type":"VEC3"
		}
	],
	"bufferViews":[
		{
			"buffer":0,
			"byteLength":7500,
			"byteOffset":0,
			"target":34962
		},
		{
			"buffer":0,
			"byteLength":7500,
			"byteOffset":7500,
			"target":34962
		},
		{
			"buffer":0,
			"byteLength":5000,
			"byteOffset":15000,
			"target":34962
		},
		{
			"buffer":0,
			"byteLength":2500,
			"byteOffset":20000,
			"target":34962
		},
		{
			"buffer":0,
			"byteLength":10000,
			"byteOffset":22500,
			"target":34962
		},
		{
			"buffer":0,
			"byteLength":6504,
			"byteOffset":32500,
			"target":34963
		},
		{
			"buffer":0,
			"byteLength":65111,
			"byteOffset":39004
		},
		{
			"buffer":0,
			"byteLength":320,
			"byteOffset":104116
		},
		{
			"buffer":0,
			"byteLength":480,
			"byteOffset":104436
		},
		{
			"buffer":0,
			"byteLength":1440,
			"byteOffset":104916
		},
		{
			"buffer":0,
			"byteLength":1920,
			"byteOffset":106356
		},
		{
			"buffer":0,
			"byteLength":8,
			"byteOffset":108276
		},
		{
			"buffer":0,
			"byteLength":24,
			"byteOffset":108284
		},
		{
			"buffer":0,
			"byteLength":24,
			"byteOffset":108308
		},
		{
			"buffer":0,
			"byteLength":1920,
			"byteOffset":108332
		},
		{
			"buffer":0,
			"byteLength":24,
			"byteOffset":110252
		},
		{
			"buffer":0,
			"byteLength":24,
			"byteOffset":110276
		},
		{
			"buffer":0,
			"byteLength":1920,
			"byteOffset":110300
		},
		{
			"buffer":0,
			"byteLength":24,
			"byteOffset":112220
		},
		{
			"buffer":0,
			"byteLength":24,
			"byteOffset":112244
		},
		{
			"buffer":0,
			"byteLength":1920,
			"byteOffset":112268
		},
		{
			"buffer":0,
			"byteLength":24,
			"byteOffset":114188
		},
		{
			"buffer":0,
			"byteLength":24,
			"byteOffset":114212
		},
		{
			"buffer":0,
			"byteLength":1920,
			"byteOffset":114236
		},
		{
			"buffer":0,
			"byteLength":24,
			"byteOffset":116156
		}
	],
	"samplers":[
		{
			"magFilter":9729,
			"minFilter":9987
		}
	],
	"buffers":[
		{
			"byteLength":116180,
			"uri":"data:application/octet-stream;base64,"
		}
	]
}
