{
	"asset":{
		"generator":"Khronos glTF Blender I/O v4.2.70",
		"version":"2.0"
	},
	"scene":0,
	"scenes":[
		{
			"name":"Scene",
			"nodes":[
				6,
				17
			]
		}
	],
	"nodes":[
		{
			"name":"Bone.004",
			"rotation":[
				-1.1755170525569378e-32,
				-1.0842126280484471e-16,
				-1.0842126280484471e-16,
				1
			],
			"translation":[
				0,
				1,
				0
			]
		},
		{
			"children":[
				0
			],
			"name":"Bone.003",
			"rotation":[
				1.3727624332310252e-32,
				1.1716493245644464e-16,
				1.1716493245644464e-16,
				1
			],
			"translation":[
				-8.881784197001252e-16,
				1,
				1.9721522630525295e-31
			]
		},
		{
			"children":[
				1
			],
			"name":"Bone.002",
			"rotation":[
				1.724239358357117e-32,
				-2.0110401817499408e-17,
				-2.0110401817499408e-17,
				1
			],
			"translation":[
				-4.440892098500626e-16,
				1,
				1.9721522630525295e-31
			]
		},
		{
			"children":[
				2
			],
			"name":"Bone.001",
			"rotation":[
				-3.0970014977145545e-32,
				-9.705453063894523e-17,
				-9.705453063894523e-17,
				1
			],
			"translation":[
				0,
				1,
				0
			]
		},
		{
			"children":[
				3
			],
			"name":"Bone"
		},
		{
			"mesh":0,
			"name":"Cylinder",
			"skin":0
		},
		{
			"children":[
				5,
				4
			],
			"name":"Armature",
			"translation":[
				-2.5,
				0,
				0
			]
		},
		{
			"mesh":1,
			"name":"Cube.005",
			"rotation":[
				1.1755169056201439e-32,
				1.0842126280484471e-16,
				1.0842126280484471e-16,
				1
			],
			"scale":[
				0.25,
				0.5,
				0.25
			],
			"translation":[
				-8.881784197001252e-16,
				0.5,
				1.9721522630525295e-31
			]
		},
		{
			"children":[
				7
			],
			"name":"Bone.004",
			"rotation":[
				-1.1755170525569378e-32,
				-1.0842126280484471e-16,
				-1.0842126280484471e-16,
				1
			],
			"translation":[
				0,
				1,
				0
			]
		},
		{
			"mesh":2,
			"name":"Cube.004",
			"rotation":[
				-1.4693679385278594e-39,
				0,
				0,
				1
			],
			"scale":[
				0.25,
				0.5,
				0.25
			],
			"translation":[
				0,
				0.5,
				4.3100872762553757e-32
			]
		},
		{
			"children":[
				8,
				9
			],
			"name":"Bone.003",
			"rotation":[
				1.3727624332310252e-32,
				1.1716493245644464e-16,
				1.1716493245644464e-16,
				1
			],
			"translation":[
				-8.881784197001252e-16,
				1,
				1.9721522630525295e-31
			]
		},
		{
			"mesh":3,
			"name":"Cube.003",
			"rotation":[
				1.3727622862942313e-32,
				1.1716493245644464e-16,
				1.1716493245644464e-16,
				1
			],
			"scale":[
				0.25,
				0.5,
				0.25
			],
			"translation":[
				-4.440892098500626e-16,
				0.5,
				9.860761315262648e-32
			]
		},
		{
			"children":[
				10,
				11
			],
			"name":"Bone.002",
			"rotation":[
				1.724239358357117e-32,
				-2.0110401817499408e-17,
				-2.0110401817499408e-17,
				1
			],
			"translation":[
				-4.440892098500626e-16,
				1,
				1.9721522630525295e-31
			]
		},
		{
			"mesh":4,
			"name":"Cube.002",
			"rotation":[
				3.0970014977145545e-32,
				9.705453063894523e-17,
				9.705453063894523e-17,
				1
			],
			"scale":[
				0.25,
				0.5,
				0.25
			],
			"translation":[
				-4.440892098500626e-16,
				0.5,
				9.860761315262648e-32
			]
		},
		{
			"children":[
				12,
				13
			],
			"name":"Bone.001",
			"rotation":[
				-3.0970014977145545e-32,
				-9.705453063894523e-17,
				-9.705453063894523e-17,
				1
			],
			"translation":[
				0,
				1,
				0
			]
		},
		{
			"mesh":5,
			"name":"Cube.001",
			"scale":[
				0.25,
				0.5,
				0.25
			],
			"translation":[
				0,
				0.5,
				0
			]
		},
		{
			"children":[
				14,
				15
			],
			"name":"Bone"
		},
		{
			"children":[
				16
			],
			"name":"Armature.001",
			"translation":[
				2.5,
				0,
				0
			]
		}
	],
	"animations":[
		{
			"channels":[
				{
					"sampler":0,
					"target":{
						"node":4,
						"path":"translation"
					}
				},
				{
					"sampler":1,
					"target":{
						"node":4,
						"path":"rotation"
					}
				},
				{
					"sampler":2,
					"target":{
						"node":4,
						"path":"scale"
					}
				},
				{
					"sampler":3,
					"target":{
						"node":3,
						"path":"translation"
					}
				},
				{
					"sampler":4,
					"target":{
						"node":3,
						"path":"rotation"
					}
				},
				{
					"sampler":5,
					"target":{
						"node":3,
						"path":"scale"
					}
				},
				{
					"sampler":6,
					"target":{
						"node":2,
						"path":"translation"
					}
				},
				{
					"sampler":7,
					"target":{
						"node":2,
						"path":"rotation"
					}
				},
				{
					"sampler":8,
					"target":{
						"node":2,
						"path":"scale"
					}
				},
				{
					"sampler":9,
					"target":{
						"node":1,
						"path":"translation"
					}
				},
				{
					"sampler":10,
					"target":{
						"node":1,
						"path":"rotation"
					}
				},
				{
					"sampler":11,
					"target":{
						"node":1,
						"path":"scale"
					}
				},
				{
					"sampler":12,
					"target":{
						"node":0,
						"path":"translation"
					}
				},
				{
					"sampler":13,
					"target":{
						"node":0,
						"path":"rotation"
					}
				},
				{
					"sampler":14,
					"target":{
						"node":0,
						"path":"scale"
					}
				},
				{
					"sampler":15,
					"target":{
						"node":16,
						"path":"translation"
					}
				},
				{
					"sampler":16,
					"target":{
						"node":16,
						"path":"rotation"
					}
				},
				{
					"sampler":17,
					"target":{
						"node":16,
						"path":"scale"
					}
				},
				{
					"sampler":18,
					"target":{
						"node":14,
						"path":"translation"
					}
				},
				{
					"sampler":19,
					"target":{
						"node":14,
						"path":"rotation"
					}
				},
				{
					"sampler":20,
					"target":{
						"node":14,
						"path":"scale"
					}
				},
				{
					"sampler":21,
					"target":{
						"node":12,
						"path":"translation"
					}
				},
				{
					"sampler":22,
					"target":{
						"node":12,
						"path":"rotation"
					}
				},
				{
					"sampler":23,
					"target":{
						"node":12,
						"path":"scale"
					}
				},
				{
					"sampler":24,
					"target":{
						"node":10,
						"path":"translation"
					}
				},
				{
					"sampler":25,
					"target":{
						"node":10,
						"path":"rotation"
					}
				},
				{
					"sampler":26,
					"target":{
						"node":10,
						"path":"scale"
					}
				},
				{
					"sampler":27,
					"target":{
						"node":8,
						"path":"translation"
					}
				},
				{
					"sampler":28,
					"target":{
						"node":8,
						"path":"rotation"
					}
				},
				{
					"sampler":29,
					"target":{
						"node":8,
						"path":"scale"
					}
				}
			],
			"name":"Animation",
			"samplers":[
				{
					"input":23,
					"interpolation":"LINEAR",
					"output":24
				},
				{
					"input":23,
					"interpolation":"LINEAR",
					"output":25
				},
				{
					"input":26,
					"interpolation":"STEP",
					"output":27
				},
				{
					"input":26,
					"interpolation":"STEP",
					"output":28
				},
				{
					"input":23,
					"interpolation":"LINEAR",
					"output":29
				},
				{
					"input":26,
					"interpolation":"STEP",
					"output":30
				},
				{
					"input":26,
					"interpolation":"STEP",
					"output":31
				},
				{
					"input":23,
					"interpolation":"LINEAR",
					"output":32
				},
				{
					"input":26,
					"interpolation":"STEP",
					"output":33
				},
				{
					"input":26,
					"interpolation":"STEP",
					"output":34
				},
				{
					"input":23,
					"interpolation":"LINEAR",
					"output":35
				},
				{
					"input":26,
					"interpolation":"STEP",
					"output":36
				},
				{
					"input":26,
					"interpolation":"STEP",
					"output":37
				},
				{
					"input":23,
					"interpolation":"LINEAR",
					"output":38
				},
				{
					"input":26,
					"interpolation":"STEP",
					"output":39
				},
				{
					"input":23,
					"interpolation":"LINEAR",
					"output":40
				},
				{
					"input":23,
					"interpolation":"LINEAR",
					"output":41
				},
				{
					"input":26,
					"interpolation":"STEP",
					"output":42
				},
				{
					"input":26,
					"interpolation":"STEP",
					"output":43
				},
				{
					"input":23,
					"interpolation":"LINEAR",
					"output":44
				},
				{
					"input":26,
					"interpolation":"STEP",
					"output":45
				},
				{
					"input":26,
					"interpolation":"STEP",
					"output":46
				},
				{
					"input":23,
					"interpolation":"LINEAR",
					"output":47
				},
				{
					"input":26,
					"interpolation":"STEP",
					"output":48
				},
				{
					"input":26,
					"interpolation":"STEP",
					"output":49
				},
				{
					"input":23,
					"interpolation":"LINEAR",
					"output":50
				},
				{
					"input":26,
					"interpolation":"STEP",
					"output":51
				},
				{
					"input":26,
					"interpolation":"STEP",
					"output":52
				},
				{
					"input":23,
					"interpolation":"LINEAR",
					"output":53
				},
				{
					"input":26,
					"interpolation":"STEP",
					"output":54
				}
			]
		}
	],
	"materials":[
		{
			"doubleSided":true,
			"name":"Material.001",
			"pbrMetallicRoughness":{
				"baseColorTexture":{
					"index":0
				},
				"metallicFactor":0,
				"roughnessFactor":0.5
			}
		},
		{
			"doubleSided":true,
			"name":"Material.005",
			"pbrMetallicRoughness":{
				"baseColorFactor":[
					0.05075884610414505,
					0.02160581946372986,
					0.8001648187637329,
					1
				],
				"metallicFactor":0,
				"roughnessFactor":0.5
			}
		},
		{
			"doubleSided":true,
			"name":"Material.004",
			"pbrMetallicRoughness":{
				"baseColorFactor":[
					0.800315260887146,
					0.003870911430567503,
					0.09500357508659363,
					1
				],
				"metallicFactor":0,
				"roughnessFactor":0.5
			}
		},
		{
			"doubleSided":true,
			"name":"Material.002",
			"pbrMetallicRoughness":{
				"baseColorFactor":[
					0.8001565933227539,
					0.16348378360271454,
					0.005254773423075676,
					1
				],
				"metallicFactor":0,
				"roughnessFactor":0.5
			}
		},
		{
			"doubleSided":true,
			"name":"Material.003",
			"pbrMetallicRoughness":{
				"baseColorFactor":[
					0.14078404009342194,
					0.8008996248245239,
					0.23409321904182434,
					1
				],
				"metallicFactor":0,
				"roughnessFactor":0.5
			}
		},
		{
			"doubleSided":true,
			"name":"Material",
			"pbrMetallicRoughness":{
				"baseColorFactor":[
					0.029239948838949203,
					0.2709392309188843,
					0.8006302714347839,
					1
				],
				"metallicFactor":0,
				"roughnessFactor":0.5
			}
		}
	],
	"meshes":[
		{
			"name":"Cylinder",
			"primitives":[
				{
					"attributes":{
						"POSITION":0,
						"NORMAL":1,
						"TEXCOORD_0":2,
						"JOINTS_0":3,
						"WEIGHTS_0":4
					},
					"indices":5,
					"material":0
				}
			]
		},
		{
			"name":"Cube.005",
			"primitives":[
				{
					"attributes":{
						"POSITION":7,
						"NORMAL":8,
						"TEXCOORD_0":9
					},
					"indices":10,
					"material":1
				}
			]
		},
		{
			"name":"Cube.004",
			"primitives":[
				{
					"attributes":{
						"POSITION":11,
						"NORMAL":12,
						"TEXCOORD_0":13
					},
					"indices":10,
					"material":2
				}
			]
		},
		{
			"name":"Cube.003",
			"primitives":[
				{
					"attributes":{
						"POSITION":14,
						"NORMAL":15,
						"TEXCOORD_0":16
					},
					"indices":10,
					"material":3
				}
			]
		},
		{
			"name":"Cube.002",
			"primitives":[
				{
					"attributes":{
						"POSITION":17,
						"NORMAL":18,
						"TEXCOORD_0":19
					},
					"indices":10,
					"material":4
				}
			]
		},
		{
			"name":"Cube",
			"primitives":[
				{
					"attributes":{
						"POSITION":20,
						"NORMAL":21,
						"TEXCOORD_0":22
					},
					"indices":10,
					"material":5
				}
			]
		}
	],
	"textures":[
		{
			"sampler":0,
			"source":0
		}
	],
	"images":[
		{
			"bufferView":6,
			"mimeType":"image/png",
			"name":"BakeTarget"
		}
	],
	"skins":[
		{
			"inverseBindMatrices":6,
			"joints":[
				4,
				3,
				2,
				1,
				0
			],
			"name":"Armature"
		},
		{
			"inverseBindMatrices":55,
			"joints":[
				16,
				14,
				12,
				10,
				8
			],
			"name":"Armature.001"
		}
	],
	"accessors":[
		{
			"bufferView":0,
			"componentType":5126,
			"count":625,
			"max":[
				-1.75,
				5,
				0.75
			],
			"min":[
				-3.25,
				0,
				-0.75
			],
			"type":"VEC3"
		},
		{
			"bufferView":1,
			"componentType":5126,
			"count":625,
			"type":"VEC3"
		},
		{
			"bufferView":2,
			"componentType":5126,
			"count":625,
			"type":"VEC2"
		},
		{
			"bufferView":3,
			"componentType":5121,
			"count":625,
			"type":"VEC4"
		},
		{
			"bufferView":4,
			"componentType":5126,
			"count":625,
			"type":"VEC4"
		},
		{
			"bufferView":5,
			"componentType":5123,
			"count":3252,
			"type":"SCALAR"
		},
		{
			"bufferView":7,
			"componentType":5126,
			"count":5,
			"type":"MAT4"
		},
		{
			"bufferView":8,
			"componentType":5126,
			"count":24,
			"max":[
				1,
				1,
				1
			],
			"min":[
				-1,
				-1,
				-1
			],
			"type":"VEC3"
		},
		{
			"bufferView":9,
			"componentType":5126,
			"count":24,
			"type":"VEC3"
		},
		{
			"bufferView":10,
			"componentType":5126,
			"count":24,
			"type":"VEC2"
		},
		{
			"bufferView":11,
			"componentType":5123,
			"count":36,
			"type":"SCALAR"
		},
		{
			"bufferView":12,
			"componentType":5126,
			"count":24,
			"max":[
				1,
				1,
				1
			],
			"min":[
				-1,
				-1,
				-1
			],
			"type":"VEC3"
		},
		{
			"bufferView":13,
			"componentType":5126,
			"count":24,
			"type":"VEC3"
		},
		{
			"bufferView":14,
			"componentType":5126,
			"count":24,
			"type":"VEC2"
		},
		{
			"bufferView":15,
			"componentType":5126,
			"count":24,
			"max":[
				1,
				1,
				1
			],
			"min":[
				-1,
				-1,
				-1
			],
			"type":"VEC3"
		},
		{
			"bufferView":16,
			"componentType":5126,
			"count":24,
			"type":"VEC3"
		},
		{
			"bufferView":17,
			"componentType":5126,
			"count":24,
			"type":"VEC2"
		},
		{
			"bufferView":18,
			"componentType":5126,
			"count":24,
			"max":[
				1,
				1,
				1
			],
			"min":[
				-1,
				-1,
				-1
			],
			"type":"VEC3"
		},
		{
			"bufferView":19,
			"componentType":5126,
			"count":24,
			"type":"VEC3"
		},
		{
			"bufferView":20,
			"componentType":5126,
			"count":24,
			"type":"VEC2"
		},
		{
			"bufferView":21,
			"componentType":5126,
			"count":24,
			"max":[
				1,
				1,
				1
			],
			"min":[
				-1,
				-1,
				-1
			],
			"type":"VEC3"
		},
		{
			"bufferView":22,
			"componentType":5126,
			"count":24,
			"type":"VEC3"
		},
		{
			"bufferView":23,
			"componentType":5126,
			"count":24,
			"type":"VEC2"
		},
		{
			"bufferView":24,
			"componentType":5126,
			"count":120,
			"max":[
				5
			],
			"min":[
				0.041666666666666664
			],
			"type":"SCALAR"
		},
		{
			"bufferView":25,
			"componentType":5126,
			"count":120,
			"type":"VEC3"
		},
		{
			"bufferView":26,
			"componentType":5126,
			"count":120,
			"type":"VEC4"
		},
		{
			"bufferView":27,
			"componentType":5126,
			"count":2,
			"max":[
				5
			],
			"min":[
				0.041666666666666664
			],
			"type":"SCALAR"
		},
		{
			"bufferView":28,
			"componentType":5126,
			"count":2,
			"type":"VEC3"
		},
		{
			"bufferView":29,
			"componentType":5126,
			"count":2,
			"type":"VEC3"
		},
		{
			"bufferView":30,
			"componentType":5126,
			"count":120,
			"type":"VEC4"
		},
		{
			"bufferView":31,
			"componentType":5126,
			"count":2,
			"type":"VEC3"
		},
		{
			"bufferView":32,
			"componentType":5126,
			"count":2,
			"type":"VEC3"
		},
		{
			"bufferView":33,
			"componentType":5126,
			"count":120,
			"type":"VEC4"
		},
		{
			"bufferView":34,
			"componentType":5126,
			"count":2,
			"type":"VEC3"
		},
		{
			"bufferView":35,
			"componentType":5126,
			"count":2,
			"type":"VEC3"
		},
		{
			"bufferView":36,
			"componentType":5126,
			"count":120,
			"type":"VEC4"
		},
		{
			"bufferView":37,
			"componentType":5126,
			"count":2,
			"type":"VEC3"
		},
		{
			"bufferView":38,
			"componentType":5126,
			"count":2,
			"type":"VEC3"
		},
		{
			"bufferView":39,
			"componentType":5126,
			"count":120,
			"type":"VEC4"
		},
		{
			"bufferView":40,
			"componentType":5126,
			"count":2,
			"type":"VEC3"
		},
		{
			"bufferView":41,
			"componentType":5126,
			"count":120,
			"type":"VEC3"
		},
		{
			"bufferView":42,
			"componentType":5126,
			"count":120,
			"type":"VEC4"
		},
		{
			"bufferView":43,
			"componentType":5126,
			"count":2,
			"type":"VEC3"
		},
		{
			"bufferView":44,
			"componentType":5126,
			"count":2,
			"type":"VEC3"
		},
		{
			"bufferView":45,
			"componentType":5126,
			"count":120,
			"type":"VEC4"
		},
		{
			"bufferView":46,
			"componentType":5126,
			"count":2,
			"type":"VEC3"
		},
		{
			"bufferView":47,
			"componentType":5126,
			"count":2,
			"type":"VEC3"
		},
		{
			"bufferView":48,
			"componentType":5126,
			"count":120,
			"type":"VEC4"
		},
		{
			"bufferView":49,
			"componentType":5126,
			"count":2,
			"type":"VEC3"
		},
		{
			"bufferView":50,
			"componentType":5126,
			"count":2,
			"type":"VEC3"
		},
		{
			"bufferView":51,
			"componentType":5126,
			"count":120,
			"type":"VEC4"
		},
		{
			"bufferView":52,
			"componentType":5126,
			"count":2,
			"type":"VEC3"
		},
		{
			"bufferView":53,
			"componentType":5126,
			"count":2,
			"type":"VEC3"
		},
		{
			"bufferView":54,
			"componentType":5126,
			"count":120,
			"type":"VEC4"
		},
		{
			"bufferView":55,
			"componentType":5126,
			"count":2,
			"type":"VEC3"
		},
		{
			"bufferView":56,
			"componentType":5126,
			"count":5,
			"type":"MAT4"
		}
	],
	"bufferViews":[
		{
			"buffer":0,
			"byteLength":7500,
			"byteOffset":0,
			"target":34962
		},
		{
			"buffer":0,
			"byteLength":7500,
			"byteOffset":7500,
			"target":34962
		},
		{
			"buffer":0,
			"byteLength":5000,
			"byteOffset":15000,
			"target":34962
		},
		{
			"buffer":0,
			"byteLength":2500,
			"byteOffset":20000,
			"target":34962
		},
		{
			"buffer":0,
			"byteLength":10000,
			"byteOffset":22500,
			"target":34962
		},
		{
			"buffer":0,
			"byteLength":6504,
			"byteOffset":32500,
			"target":34963
		},
		{
			"buffer":0,
			"byteLength":68500,
			"byteOffset":39004
		},
		{
			"buffer":0,
			"byteLength":320,
			"byteOffset":107504
		},
		{
			"buffer":0,
			"byteLength":288,
			"byteOffset":107824,
			"target":34962
		},
		{
			"buffer":0,
			"byteLength":288,
			"byteOffset":108112,
			"target":34962
		},
		{
			"buffer":0,
			"byteLength":192,
			"byteOffset":108400,
			"target":34962
		},
		{
			"buffer":0,
			"byteLength":72,
			"byteOffset":108592,
			"target":34963
		},
		{
			"buffer":0,
			"byteLength":288,
			"byteOffset":108664,
			"target":34962
		},
		{
			"buffer":0,
			"byteLength":288,
			"byteOffset":108952,
			"target":34962
		},
		{
			"buffer":0,
			"byteLength":192,
			"byteOffset":109240,
			"target":34962
		},
		{
			"buffer":0,
			"byteLength":288,
			"byteOffset":109432,
			"target":34962
		},
		{
			"buffer":0,
			"byteLength":288,
			"byteOffset":109720,
			"target":34962
		},
		{
			"buffer":0,
			"byteLength":192,
			"byteOffset":110008,
			"target":34962
		},
		{
			"buffer":0,
			"byteLength":288,
			"byteOffset":110200,
			"target":34962
		},
		{
			"buffer":0,
			"byteLength":288,
			"byteOffset":110488,
			"target":34962
		},
		{
			"buffer":0,
			"byteLength":192,
			"byteOffset":110776,
			"target":34962
		},
		{
			"buffer":0,
			"byteLength":288,
			"byteOffset":110968,
			"target":34962
		},
		{
			"buffer":0,
			"byteLength":288,
			"byteOffset":111256,
			"target":34962
		},
		{
			"buffer":0,
			"byteLength":192,
			"byteOffset":111544,
			"target":34962
		},
		{
			"buffer":0,
			"byteLength":480,
			"byteOffset":111736
		},
		{
			"buffer":0,
			"byteLength":1440,
			"byteOffset":112216
		},
		{
			"buffer":0,
			"byteLength":1920,
			"byteOffset":113656
		},
		{
			"buffer":0,
			"byteLength":8,
			"byteOffset":115576
		},
		{
			"buffer":0,
			"byteLength":24,
			"byteOffset":115584
		},
		{
			"buffer":0,
			"byteLength":24,
			"byteOffset":115608
		},
		{
			"buffer":0,
			"byteLength":1920,
			"byteOffset":115632
		},
		{
			"buffer":0,
			"byteLength":24,
			"byteOffset":117552
		},
		{
			"buffer":0,
			"byteLength":24,
			"byteOffset":117576
		},
		{
			"buffer":0,
			"byteLength":1920,
			"byteOffset":117600
		},
		{
			"buffer":0,
			"byteLength":24,
			"byteOffset":119520
		},
		{
			"buffer":0,
			"byteLength":24,
			"byteOffset":119544
		},
		{
			"buffer":0,
			"byteLength":1920,
			"byteOffset":119568
		},
		{
			"buffer":0,
			"byteLength":24,
			"byteOffset":121488
		},
		{
			"buffer":0,
			"byteLength":24,
			"byteOffset":121512
		},
		{
			"buffer":0,
			"byteLength":1920,
			"byteOffset":121536
		},
		{
			"buffer":0,
			"byteLength":24,
			"byteOffset":123456
		},
		{
			"buffer":0,
			"byteLength":1440,
			"byteOffset":123480
		},
		{
			"buffer":0,
			"byteLength":1920,
			"byteOffset":124920
		},
		{
			"buffer":0,
			"byteLength":24,
			"byteOffset":126840
		},
		{
			"buffer":0,
			"byteLength":24,
			"byteOffset":126864
		},
		{
			"buffer":0,
			"byteLength":1920,
			"byteOffset":126888
		},
		{
			"buffer":0,
			"byteLength":24,
			"byteOffset":128808
		},
		{
			"buffer":0,
			"byteLength":24,
			"byteOffset":128832
		},
		{
			"buffer":0,
			"byteLength":1920,
			"byteOffset":128856
		},
		{
			"buffer":0,
			"byteLength":24,
			"byteOffset":130776
		},
		{
			"buffer":0,
			"byteLength":24,
			"byteOffset":130800
		},
		{
			"buffer":0,
			"byteLength":1920,
			"byteOffset":130824
		},
		{
			"buffer":0,
			"byteLength":24,
			"byteOffset":132744
		},
		{
			"buffer":0,
			"byteLength":24,
			"byteOffset":132768
		},
		{
			"buffer":0,
			"byteLength":1920,
			"byteOffset":132792
		},
		{
			"buffer":0,
			"byteLength":24,
			"byteOffset":134712
		},
		{
			"buffer":0,
			"byteLength":320,
			"byteOffset":134736
		}
	],
	"samplers":[
		{
			"magFilter":9729,
			"minFilter":9987
		}
	],
	"buffers":[
		{
			"byteLength":135056,
			"uri":"data:application/octet-stream;base64,"
		}
	]
}
