# Blender 4.2.3 LTS
# www.blender.org
mtllib BTS_PlayerWidgetModel.mtl
o Cube
v -0.873233 -1.363752 -0.227051
v -0.773233 -1.363752 -0.327051
v -0.773233 -1.463752 -0.227051
v -0.873233 0.182713 -0.227051
v -0.773233 0.282713 -0.227051
v -0.773233 0.182713 -0.327051
v 0.873233 -1.363752 -0.227051
v 0.773233 -1.463752 -0.227051
v 0.773233 -1.363752 -0.327051
v 0.773233 0.282713 -0.227051
v 0.873233 0.182713 -0.227051
v 0.773233 0.182713 -0.327051
v -0.873233 -1.363752 0.227051
v -0.773233 -1.463752 0.227051
v -0.773233 -1.363752 0.327051
v -0.873233 0.182713 0.227051
v -0.773233 0.182713 0.327051
v -0.773233 0.282713 0.227051
v 0.773233 -1.463752 0.227051
v 0.873233 -1.363752 0.227051
v 0.773233 -1.363752 0.327051
v 0.773233 0.282713 0.227051
v 0.773233 0.182713 0.327051
v 0.873233 0.182713 0.227051
v -0.338005 -0.590519 -0.227051
v -0.438489 -0.590519 -0.327051
v -0.331511 -0.656461 -0.227051
v -0.430064 -0.676064 -0.327051
v -0.331511 -0.524578 -0.227051
v -0.430064 -0.504974 -0.327051
v -0.364590 -0.834131 -0.327051
v -0.281041 -0.778305 -0.227051
v -0.281041 -0.402734 -0.227051
v -0.364590 -0.346908 -0.327051
v -0.312276 -0.719868 -0.227051
v -0.405111 -0.758322 -0.327051
v -0.312276 -0.461170 -0.227051
v -0.405111 -0.422717 -0.327051
v -0.187786 -0.309478 -0.227051
v -0.243612 -0.225929 -0.327051
v -0.065942 -0.259009 -0.227051
v -0.085545 -0.160456 -0.327051
v -0.129349 -0.278243 -0.227051
v -0.167802 -0.185408 -0.327051
v 0.129349 -0.278243 -0.227051
v 0.167802 -0.185408 -0.327051
v 0.065942 -0.259009 -0.227051
v 0.085545 -0.160456 -0.327051
v 0.239006 -0.351514 -0.227051
v 0.310059 -0.280461 -0.327051
v 0.187786 -0.309478 -0.227051
v 0.243612 -0.225929 -0.327051
v 0.000000 -0.252514 -0.227051
v 0.000000 -0.152030 -0.327051
v -0.239006 -0.351514 -0.227051
v -0.310059 -0.280461 -0.327051
v -0.239006 -0.829525 -0.227051
v -0.310059 -0.900578 -0.327051
v -0.129349 -0.902796 -0.227051
v -0.167802 -0.995631 -0.327051
v -0.065942 -0.922030 -0.227051
v -0.085545 -1.020583 -0.327051
v -0.187786 -0.871561 -0.227051
v -0.243612 -0.955110 -0.327051
v 0.000000 -0.928525 -0.227051
v -0.000000 -1.029009 -0.327051
v 0.187786 -0.871561 -0.227051
v 0.243612 -0.955110 -0.327051
v 0.129349 -0.902796 -0.227051
v 0.167802 -0.995631 -0.327051
v 0.065942 -0.922030 -0.227051
v 0.085545 -1.020583 -0.327051
v 0.281041 -0.778305 -0.227051
v 0.364590 -0.834131 -0.327051
v 0.281041 -0.402734 -0.227051
v 0.364590 -0.346908 -0.327051
v 0.338005 -0.590519 -0.227051
v 0.438489 -0.590519 -0.327051
v 0.331511 -0.656461 -0.227051
v 0.430064 -0.676064 -0.327051
v 0.331511 -0.524578 -0.227051
v 0.430064 -0.504974 -0.327051
v 0.312276 -0.461170 -0.227051
v 0.405111 -0.422717 -0.327051
v 0.310059 -0.900578 -0.327051
v 0.239006 -0.829525 -0.227051
v 0.312276 -0.719868 -0.227051
v 0.405111 -0.758322 -0.327051
v -0.239006 -0.351514 0.227051
v -0.310059 -0.280461 0.327051
v -0.129349 -0.278243 0.227051
v -0.167803 -0.185408 0.327051
v -0.187786 -0.309478 0.227051
v -0.243612 -0.225929 0.327051
v -0.065942 -0.259009 0.227051
v -0.085545 -0.160456 0.327051
v 0.065942 -0.259009 0.227051
v 0.085545 -0.160456 0.327051
v -0.000000 -0.252514 0.227051
v -0.000000 -0.152030 0.327051
v 0.243612 -0.225929 0.327051
v 0.187786 -0.309478 0.227051
v 0.129349 -0.278243 0.227051
v 0.167802 -0.185408 0.327051
v 0.281041 -0.778305 0.227051
v 0.364590 -0.834131 0.327051
v 0.281041 -0.402734 0.227051
v 0.364590 -0.346908 0.327051
v 0.338005 -0.590519 0.227051
v 0.438489 -0.590519 0.327051
v 0.331511 -0.656461 0.227051
v 0.430064 -0.676064 0.327051
v 0.331511 -0.524578 0.227051
v 0.430064 -0.504974 0.327051
v 0.312276 -0.461170 0.227051
v 0.405111 -0.422717 0.327051
v 0.239006 -0.829525 0.227051
v 0.310059 -0.900578 0.327051
v 0.312276 -0.719868 0.227051
v 0.405111 -0.758322 0.327051
v 0.310059 -0.280461 0.327051
v 0.239006 -0.351514 0.227051
v -0.338005 -0.590519 0.227051
v -0.438489 -0.590519 0.327051
v -0.331511 -0.524578 0.227051
v -0.430064 -0.504974 0.327051
v -0.331511 -0.656461 0.227051
v -0.430064 -0.676064 0.327051
v -0.281041 -0.778305 0.227051
v -0.364590 -0.834131 0.327051
v -0.281041 -0.402734 0.227051
v -0.364590 -0.346908 0.327051
v -0.312276 -0.719868 0.227051
v -0.405111 -0.758322 0.327051
v -0.312276 -0.461170 0.227051
v -0.405111 -0.422717 0.327051
v -0.187786 -0.871561 0.227051
v -0.243612 -0.955110 0.327051
v -0.065942 -0.922030 0.227051
v -0.085545 -1.020583 0.327051
v -0.129349 -0.902796 0.227051
v -0.167802 -0.995631 0.327051
v 0.065942 -0.922030 0.227051
v 0.085545 -1.020583 0.327051
v 0.187786 -0.871561 0.227051
v 0.243612 -0.955110 0.327051
v 0.129349 -0.902796 0.227051
v 0.167802 -0.995631 0.327051
v -0.000000 -0.928525 0.227051
v -0.000000 -1.029009 0.327051
v -0.239006 -0.829525 0.227051
v -0.310059 -0.900578 0.327051
vn -0.0000 -1.0000 -0.0000
vn -0.0000 -0.0000 -1.0000
vn -0.0000 -0.0000 1.0000
vn 0.9952 -0.0980 -0.0000
vn -0.0000 1.0000 -0.0000
vn -1.0000 -0.0000 -0.0000
vn 1.0000 -0.0000 -0.0000
vn -0.9952 -0.0980 -0.0000
vn -0.9569 -0.2903 -0.0000
vn -0.8819 -0.4714 -0.0000
vn -0.8819 0.4714 -0.0000
vn -0.2903 0.9569 -0.0000
vn -0.6344 0.7730 -0.0000
vn -0.7730 0.6344 -0.0000
vn -0.4714 0.8819 -0.0000
vn -0.0980 0.9952 -0.0000
vn 0.0980 0.9952 -0.0000
vn 0.2903 0.9569 -0.0000
vn 0.4714 0.8819 -0.0000
vn 0.8819 0.4714 -0.0000
vn 0.7730 -0.6344 -0.0000
vn 0.9569 -0.2903 -0.0000
vn 0.9569 0.2903 -0.0000
vn 0.9952 0.0980 -0.0000
vn 0.7730 0.6344 -0.0000
vn 0.4714 -0.8819 -0.0000
vn 0.8819 -0.4714 -0.0000
vn 0.0980 -0.9952 -0.0000
vn 0.6344 -0.7730 -0.0000
vn -0.4714 -0.8819 -0.0000
vn 0.2903 -0.9569 -0.0000
vn -0.7730 -0.6344 -0.0000
vn -0.0980 -0.9952 -0.0000
vn -0.2903 -0.9569 -0.0000
vn 0.6344 0.7730 -0.0000
vn -0.6344 -0.7730 -0.0000
vn -0.9952 0.0980 -0.0000
vn -0.9569 0.2903 -0.0000
vn -0.5774 -0.5773 -0.5774
vn -0.5774 0.5773 -0.5774
vn 0.5774 -0.5774 -0.5774
vn 0.5774 0.5774 -0.5773
vn -0.5774 -0.5773 0.5774
vn -0.5774 0.5774 0.5774
vn 0.5774 -0.5774 0.5774
vn 0.5774 0.5774 0.5774
vn 0.5466 0.4486 -0.7071
vn -0.7071 -0.0000 -0.7071
vn -0.0000 0.7071 -0.7071
vn 0.7071 -0.0000 -0.7071
vn -0.5466 0.4486 -0.7071
vn -0.6236 0.3333 -0.7071
vn -0.6767 0.2053 -0.7071
vn -0.7037 0.0693 -0.7071
vn -0.7037 -0.0693 -0.7071
vn -0.6767 -0.2053 -0.7071
vn -0.6236 -0.3333 -0.7071
vn -0.5466 -0.4486 -0.7071
vn -0.4486 -0.5466 -0.7071
vn -0.3333 -0.6236 -0.7071
vn -0.2053 -0.6767 -0.7071
vn -0.0693 -0.7037 -0.7071
vn 0.0693 -0.7037 -0.7071
vn 0.2053 -0.6767 -0.7071
vn 0.3333 -0.6236 -0.7071
vn 0.4486 -0.5466 -0.7071
vn 0.5466 -0.4486 -0.7071
vn 0.6236 -0.3333 -0.7071
vn 0.6767 -0.2053 -0.7071
vn 0.7037 -0.0693 -0.7071
vn 0.7037 0.0693 -0.7071
vn 0.6767 0.2053 -0.7071
vn 0.6236 0.3333 -0.7071
vn -0.0000 -0.7071 -0.7071
vn 0.4486 0.5466 -0.7071
vn 0.3333 0.6236 -0.7071
vn 0.2053 0.6767 -0.7071
vn 0.0693 0.7037 -0.7071
vn -0.0693 0.7037 -0.7071
vn -0.2053 0.6767 -0.7071
vn -0.3333 0.6236 -0.7071
vn -0.4486 0.5466 -0.7071
vn 0.7071 -0.7071 -0.0000
vn 0.7071 0.7071 -0.0000
vn 0.7071 -0.0000 0.7071
vn -0.7071 -0.0000 0.7071
vn -0.0000 -0.7071 0.7071
vn -0.5466 -0.4486 0.7071
vn -0.6236 -0.3333 0.7071
vn -0.6767 -0.2053 0.7071
vn -0.7037 -0.0693 0.7071
vn -0.7037 0.0693 0.7071
vn -0.6767 0.2053 0.7071
vn -0.6236 0.3333 0.7071
vn -0.5466 0.4486 0.7071
vn -0.4486 0.5466 0.7071
vn -0.3333 0.6236 0.7071
vn -0.2053 0.6767 0.7071
vn -0.0693 0.7037 0.7071
vn 0.0693 0.7037 0.7071
vn 0.2053 0.6767 0.7071
vn 0.3333 0.6236 0.7071
vn 0.4486 0.5466 0.7071
vn 0.5466 0.4486 0.7071
vn 0.6236 0.3333 0.7071
vn 0.6767 0.2053 0.7071
vn 0.7037 0.0693 0.7071
vn 0.7037 -0.0693 0.7071
vn 0.6767 -0.2053 0.7071
vn 0.6236 -0.3333 0.7071
vn 0.5466 -0.4486 0.7071
vn -0.4486 -0.5466 0.7071
vn -0.0000 0.7071 0.7071
vn 0.4486 -0.5466 0.7071
vn 0.3333 -0.6236 0.7071
vn 0.2053 -0.6767 0.7071
vn 0.0693 -0.7037 0.7071
vn -0.0693 -0.7037 0.7071
vn -0.2053 -0.6767 0.7071
vn -0.3333 -0.6236 0.7071
vn -0.7071 -0.7071 -0.0000
vn -0.7071 0.7071 -0.0000
vt 0.712662 0.469243
vt 0.842081 0.028500
vt 0.842081 0.469243
vt 0.028500 0.028500
vt 0.123902 0.248871
vt 0.126303 0.273252
vt 0.469243 0.526243
vt 0.371439 0.770994
vt 0.373841 0.746614
vt 0.028500 0.966985
vt 0.126303 0.722234
vt 0.123902 0.746614
vt 0.870581 0.008902
vt 1.000000 0.020882
vt 0.870581 0.020882
vt 0.526243 0.311652
vt 0.655662 0.000000
vt 0.655662 0.311652
vt 0.712662 0.528463
vt 0.842081 0.967750
vt 0.712662 0.967750
vt 0.526243 0.351957
vt 0.655662 0.663609
vt 0.526243 0.663609
vt 1.000000 0.225017
vt 0.870581 0.243598
vt 0.870581 0.225017
vt 0.870581 0.207451
vt 1.000000 0.207451
vt 1.000000 0.191574
vt 0.870581 0.191574
vt 1.000000 0.280936
vt 0.870581 0.298259
vt 0.870581 0.280936
vt 0.870581 0.169095
vt 1.000000 0.177997
vt 0.870581 0.177997
vt 1.000000 0.313781
vt 0.870581 0.326907
vt 0.870581 0.313781
vt 1.000000 0.298259
vt 1.000000 0.337132
vt 1.000000 0.326907
vt 0.870581 0.157115
vt 1.000000 0.169095
vt 1.000000 0.142518
vt 1.000000 0.157115
vt 0.870581 0.125863
vt 0.870581 0.142518
vt 0.870581 0.107792
vt 1.000000 0.125863
vt 1.000000 0.052134
vt 0.870581 0.070205
vt 0.870581 0.052134
vt 1.000000 0.358014
vt 0.870581 0.346034
vt 1.000000 0.346034
vt 0.870581 0.000000
vt 1.000000 0.008902
vt 0.870581 0.035480
vt 1.000000 0.035480
vt 1.000000 0.088999
vt 0.870581 0.088999
vt 0.870581 0.389266
vt 1.000000 0.372611
vt 1.000000 0.389266
vt 1.000000 0.337132
vt 1.000000 0.426130
vt 0.870581 0.407337
vt 1.000000 0.407337
vt 0.870581 0.358014
vt 0.870581 0.479649
vt 1.000000 0.462995
vt 1.000000 0.479649
vt 1.000000 0.177997
vt 0.870581 0.177997
vt 1.000000 0.444924
vt 0.870581 0.426130
vt 0.870581 0.462995
vt 1.000000 0.107792
vt 0.870581 0.494247
vt 1.000000 0.494247
vt 1.000000 0.262480
vt 1.000000 0.243598
vt 0.870581 0.262480
vt 0.842081 0.000000
vt 0.870581 0.028500
vt 0.842081 0.528463
vt 0.842081 0.497743
vt 0.870581 0.526149
vt 0.469243 0.000000
vt 0.497743 0.028500
vt 0.469243 0.028500
vt 0.497743 0.331805
vt 0.712662 0.000000
vt 0.712662 0.028500
vt 0.684162 0.028500
vt 0.684162 0.526149
vt 0.712662 0.497743
vt 0.712662 0.497743
vt 0.684162 0.469243
vt 0.684162 0.331805
vt 0.655662 0.351957
vt 0.316988 0.316988
vt 0.318301 0.352780
vt 0.302390 0.328968
vt 0.028500 0.497743
vt 0.469243 0.469243
vt 0.469243 0.497743
vt 0.000000 0.028500
vt 0.028500 0.469243
vt -0.000000 0.469243
vt 0.337238 0.160505
vt 0.302390 0.168775
vt 0.318301 0.144963
vt 0.285736 0.159873
vt 0.296695 0.133415
vt 0.267665 0.154391
vt 0.273252 0.126303
vt 0.248871 0.123902
vt 0.248871 0.152540
vt 0.224491 0.126303
vt 0.230078 0.154391
vt 0.201048 0.133415
vt 0.179442 0.144963
vt 0.212007 0.159873
vt 0.195352 0.168775
vt 0.160505 0.160505
vt 0.180755 0.180755
vt 0.144963 0.179442
vt 0.159873 0.212007
vt 0.133415 0.201048
vt 0.154391 0.230078
vt 0.126303 0.224491
vt 0.154391 0.267665
vt 0.133415 0.296695
vt 0.144963 0.318301
vt 0.159873 0.285736
vt 0.168775 0.302390
vt 0.180755 0.316988
vt 0.160505 0.337238
vt 0.195352 0.328968
vt 0.179442 0.352780
vt 0.212007 0.337870
vt 0.201048 0.364328
vt 0.230078 0.343352
vt 0.224491 0.371440
vt 0.248871 0.345203
vt 0.248871 0.373841
vt 0.273252 0.371440
vt 0.285736 0.337870
vt 0.267665 0.343352
vt 0.296695 0.364328
vt 0.497743 0.469243
vt 0.328968 0.302390
vt 0.337238 0.337238
vt 0.352780 0.318301
vt 0.337870 0.285736
vt 0.364328 0.296695
vt 0.343352 0.267665
vt 0.373841 0.248871
vt 0.371440 0.273252
vt 0.345203 0.248871
vt 0.371440 0.224491
vt 0.364328 0.201048
vt 0.343352 0.230078
vt 0.337870 0.212007
vt 0.352780 0.179442
vt 0.328968 0.195352
vt 0.316988 0.180755
vt 0.842081 0.497743
vt 0.028500 0.995485
vt 0.469243 0.966985
vt 0.469243 0.995485
vt 0.028500 0.526243
vt 0.469243 0.497743
vt 0.179442 0.850522
vt 0.180755 0.814731
vt 0.195352 0.826711
vt 0.212007 0.835613
vt 0.201048 0.862071
vt 0.230078 0.841095
vt 0.224491 0.869182
vt 0.248871 0.871584
vt 0.248871 0.842946
vt 0.267665 0.841095
vt 0.296695 0.862071
vt 0.273252 0.869182
vt 0.318301 0.850522
vt 0.285736 0.835613
vt 0.302390 0.826711
vt 0.337238 0.834981
vt 0.316988 0.814731
vt 0.352780 0.816043
vt 0.337870 0.783479
vt 0.328968 0.800133
vt 0.364328 0.794438
vt 0.343352 0.765407
vt 0.345203 0.746614
vt 0.371440 0.722234
vt 0.343352 0.727821
vt 0.364328 0.698790
vt 0.328968 0.693095
vt 0.352780 0.677185
vt 0.316988 0.678497
vt 0.337238 0.658247
vt 0.302390 0.666517
vt 0.318301 0.642706
vt 0.285736 0.657615
vt 0.296695 0.631157
vt 0.267665 0.652134
vt 0.273252 0.624046
vt 0.248871 0.621645
vt 0.248871 0.650283
vt 0.230078 0.652134
vt 0.201048 0.631157
vt 0.224491 0.624046
vt 0.179442 0.642706
vt 0.212007 0.657615
vt 0.195352 0.666517
vt 0.180755 0.678497
vt 0.160505 0.658247
vt 0.144963 0.816043
vt 0.168775 0.800133
vt 0.000000 0.526243
vt 0.168775 0.693095
vt 0.144963 0.677185
vt 0.159873 0.709750
vt 0.133415 0.698790
vt 0.152540 0.746614
vt 0.154391 0.727821
vt 0.154391 0.765407
vt 0.126303 0.770994
vt 0.133415 0.794438
vt 0.159873 0.783479
vt 0.160505 0.834981
vt 0.526243 0.000000
vt 0.870581 0.337132
vt 1.000000 0.070205
vt 1.000000 0.000000
vt 0.870581 0.372611
vt 0.870581 0.444924
vt 0.028500 0.000000
vt 0.168775 0.195352
vt 0.152540 0.248871
vt 0.028500 0.497743
vt 0.337870 0.709750
vt -0.000000 0.966985
s 0
usemtl Material
f 19/1/1 3/2/1 8/3/1
f 12/4/2 54/5/2 42/6/2
f 15/7/3 144/8/3 150/9/3
f 23/10/3 96/11/3 100/12/3
f 29/13/4 123/14/4 25/15/4
f 10/16/5 18/17/5 22/18/5
f 16/19/6 1/20/6 13/21/6
f 11/22/7 20/23/7 7/24/7
f 81/25/8 109/26/8 113/27/8
f 81/25/9 115/28/9 83/29/9
f 75/30/10 115/28/10 107/31/10
f 87/32/11 105/33/11 119/34/11
f 71/35/12 147/36/12 69/37/12
f 86/38/13 145/39/13 117/40/13
f 73/41/14 117/40/14 105/33/14
f 69/42/15 145/39/15 67/43/15
f 65/44/16 143/45/16 71/35/16
f 65/44/17 139/46/17 149/47/17
f 59/48/18 139/46/18 61/49/18
f 63/50/19 141/51/19 59/48/19
f 133/52/20 32/53/20 35/54/20
f 55/55/21 131/56/21 33/57/21
f 37/58/22 125/59/22 29/13/22
f 27/60/23 133/52/23 35/54/23
f 25/15/24 127/61/24 27/60/24
f 32/53/25 151/62/25 57/63/25
f 91/64/26 39/65/26 43/66/26
f 131/56/27 37/67/27 33/57/27
f 53/68/28 95/69/28 41/70/28
f 39/65/29 89/71/29 55/55/29
f 102/72/30 45/73/30 51/74/30
f 41/70/31 91/64/31 43/66/31
f 49/75/32 107/31/32 122/76/32
f 47/77/33 99/78/33 53/68/33
f 103/79/34 47/77/34 45/73/34
f 57/63/35 137/80/35 63/50/35
f 122/81/36 51/74/36 49/82/36
f 79/83/37 109/26/37 77/84/37
f 87/32/38 111/85/38 79/83/38
f 1/86/39 2/87/39 3/2/39
f 4/88/40 5/89/40 6/90/40
f 7/91/41 8/92/41 9/93/41
f 10/16/42 11/22/42 12/94/42
f 13/95/43 14/96/43 15/97/43
f 16/19/44 17/98/44 18/99/44
f 19/1/45 20/100/45 21/101/45
f 22/18/46 23/102/46 24/103/46
f 57/104/47 31/105/47 32/106/47
f 4/107/48 2/108/48 1/109/48
f 10/110/49 6/111/49 5/112/49
f 12/4/50 7/91/50 9/93/50
f 85/113/51 73/114/51 74/115/51
f 87/116/52 74/115/52 73/114/52
f 88/117/53 79/118/53 80/119/53
f 78/120/54 79/118/54 77/121/54
f 77/121/55 82/122/55 78/120/55
f 81/123/56 84/124/56 82/122/56
f 76/125/57 83/126/57 75/127/57
f 50/128/58 75/127/58 49/129/58
f 49/129/59 52/130/59 50/128/59
f 52/130/60 45/131/60 46/132/60
f 47/133/61 46/132/61 45/131/61
f 47/133/62 54/5/62 48/134/62
f 54/5/63 41/135/63 42/6/63
f 41/135/64 44/136/64 42/6/64
f 40/137/65 43/138/65 39/139/65
f 55/140/66 40/137/66 39/139/66
f 56/141/67 33/142/67 34/143/67
f 37/144/68 34/143/68 33/142/68
f 38/145/69 29/146/69 30/147/69
f 30/147/70 25/148/70 26/149/70
f 25/148/71 28/150/71 26/149/71
f 35/151/72 28/150/72 27/152/72
f 36/153/73 32/106/73 31/105/73
f 9/93/74 3/154/74 2/108/74
f 63/155/75 58/156/75 57/104/75
f 64/157/76 59/158/76 60/159/76
f 61/160/77 60/159/77 59/158/77
f 61/160/78 66/161/78 62/162/78
f 65/163/79 72/164/79 66/161/79
f 70/165/80 71/166/80 69/167/80
f 68/168/81 69/167/81 67/169/81
f 86/170/82 68/168/82 67/169/82
f 20/100/83 8/3/83 7/171/83
f 22/18/84 11/22/84 10/16/84
f 24/172/85 21/173/85 20/174/85
f 17/175/86 13/176/86 15/7/86
f 19/1/87 15/97/87 14/96/87
f 108/177/88 122/178/88 107/179/88
f 115/180/89 108/177/89 107/179/89
f 116/181/90 113/182/90 114/183/90
f 110/184/91 113/182/91 109/185/91
f 111/186/92 110/184/92 109/185/92
f 111/186/93 120/187/93 112/188/93
f 106/189/94 119/190/94 105/191/94
f 105/191/95 118/192/95 106/189/95
f 117/193/96 146/194/96 118/192/96
f 147/195/97 146/194/97 145/196/97
f 148/197/98 143/198/98 144/8/98
f 149/199/99 144/8/99 143/198/99
f 140/200/100 149/199/100 139/201/100
f 139/201/101 142/202/101 140/200/101
f 142/202/102 137/203/102 138/204/102
f 151/205/103 138/204/103 137/203/103
f 152/206/104 129/207/104 130/208/104
f 133/209/105 130/208/105 129/207/105
f 134/210/106 127/211/106 128/212/106
f 124/213/107 127/211/107 123/214/107
f 125/215/108 124/213/108 123/214/108
f 125/215/109 136/216/109 126/217/109
f 132/218/110 135/219/110 131/220/110
f 132/218/111 89/221/111 90/222/111
f 122/178/112 101/223/112 102/224/112
f 23/10/113 18/225/113 17/175/113
f 93/226/114 90/222/114 89/221/114
f 94/227/115 91/228/115 92/229/115
f 91/228/116 96/11/116 92/229/116
f 99/230/117 96/11/117 95/231/117
f 100/12/118 97/232/118 98/233/118
f 97/232/119 104/234/119 98/233/119
f 101/223/120 103/235/120 102/224/120
f 14/96/121 1/86/121 3/2/121
f 16/19/122 5/89/122 4/88/122
f 9/93/2 66/161/2 72/164/2
f 19/1/1 14/96/1 3/2/1
f 31/105/2 58/156/2 2/108/2
f 9/93/2 85/113/2 74/115/2
f 9/93/2 74/115/2 88/117/2
f 36/153/2 31/105/2 2/108/2
f 28/150/2 36/153/2 2/108/2
f 12/4/2 9/93/2 88/117/2
f 12/4/2 88/117/2 80/119/2
f 28/150/2 2/108/2 6/111/2
f 26/149/2 28/150/2 6/111/2
f 12/4/2 80/119/2 78/120/2
f 12/4/2 78/120/2 82/122/2
f 30/147/2 26/149/2 6/111/2
f 38/145/2 30/147/2 6/111/2
f 12/4/2 82/122/2 84/124/2
f 12/4/2 84/124/2 76/125/2
f 34/143/2 38/145/2 6/111/2
f 56/141/2 34/143/2 6/111/2
f 12/4/2 76/125/2 50/128/2
f 12/4/2 50/128/2 52/130/2
f 40/137/2 56/141/2 6/111/2
f 44/136/2 40/137/2 6/111/2
f 12/4/2 52/130/2 46/132/2
f 12/4/2 46/132/2 48/134/2
f 44/136/2 6/111/2 12/4/2
f 42/6/2 44/136/2 12/4/2
f 12/4/2 48/134/2 54/5/2
f 23/10/3 121/236/3 108/177/3
f 23/10/3 108/177/3 116/181/3
f 132/218/3 90/222/3 17/175/3
f 136/216/3 132/218/3 17/175/3
f 21/173/3 23/10/3 116/181/3
f 21/173/3 116/181/3 114/183/3
f 136/216/3 17/175/3 15/7/3
f 126/217/3 136/216/3 15/7/3
f 21/173/3 114/183/3 110/184/3
f 21/173/3 110/184/3 112/188/3
f 124/213/3 126/217/3 15/7/3
f 128/212/3 124/213/3 15/7/3
f 21/173/3 112/188/3 120/187/3
f 21/173/3 120/187/3 106/189/3
f 134/210/3 128/212/3 15/7/3
f 130/208/3 134/210/3 15/7/3
f 21/173/3 106/189/3 118/192/3
f 21/173/3 118/192/3 146/194/3
f 152/206/3 130/208/3 15/7/3
f 138/204/3 152/206/3 15/7/3
f 21/173/3 146/194/3 148/197/3
f 21/173/3 148/197/3 144/8/3
f 142/202/3 138/204/3 15/7/3
f 140/200/3 142/202/3 15/7/3
f 15/7/3 21/173/3 144/8/3
f 150/9/3 140/200/3 15/7/3
f 101/223/3 121/236/3 23/10/3
f 17/175/3 90/222/3 94/227/3
f 17/175/3 94/227/3 92/229/3
f 104/234/3 101/223/3 23/10/3
f 98/233/3 104/234/3 23/10/3
f 23/10/3 17/175/3 92/229/3
f 23/10/3 92/229/3 96/11/3
f 100/12/3 98/233/3 23/10/3
f 29/13/4 125/59/4 123/14/4
f 10/16/5 5/237/5 18/17/5
f 16/19/6 4/88/6 1/20/6
f 11/22/7 24/103/7 20/23/7
f 81/25/8 77/84/8 109/26/8
f 81/25/9 113/27/9 115/28/9
f 75/30/10 83/29/10 115/28/10
f 87/32/11 73/41/11 105/33/11
f 71/35/12 143/45/12 147/36/12
f 86/38/13 67/43/13 145/39/13
f 73/41/14 86/38/14 117/40/14
f 69/42/15 147/238/15 145/39/15
f 65/44/16 149/47/16 143/45/16
f 65/44/17 61/49/17 139/46/17
f 59/48/18 141/51/18 139/46/18
f 63/50/19 137/80/19 141/51/19
f 133/52/20 129/239/20 32/53/20
f 55/55/21 89/71/21 131/56/21
f 37/58/22 135/240/22 125/59/22
f 27/60/23 127/61/23 133/52/23
f 25/15/24 123/14/24 127/61/24
f 32/53/25 129/239/25 151/62/25
f 91/64/26 93/241/26 39/65/26
f 131/56/27 135/238/27 37/67/27
f 53/68/28 99/78/28 95/69/28
f 39/65/29 93/241/29 89/71/29
f 102/72/30 103/79/30 45/73/30
f 41/70/31 95/69/31 91/64/31
f 49/75/32 75/30/32 107/31/32
f 47/77/33 97/242/33 99/78/33
f 103/79/34 97/242/34 47/77/34
f 57/63/35 151/62/35 137/80/35
f 122/81/36 102/72/36 51/74/36
f 79/83/37 111/85/37 109/26/37
f 87/32/38 119/34/38 111/85/38
f 57/104/47 58/156/47 31/105/47
f 4/107/48 6/111/48 2/108/48
f 10/110/49 12/4/49 6/111/49
f 12/4/50 11/243/50 7/91/50
f 85/113/51 86/170/51 73/114/51
f 87/116/52 88/117/52 74/115/52
f 88/117/53 87/116/53 79/118/53
f 78/120/54 80/119/54 79/118/54
f 77/121/55 81/123/55 82/122/55
f 81/123/56 83/126/56 84/124/56
f 76/125/57 84/124/57 83/126/57
f 50/128/58 76/125/58 75/127/58
f 49/129/59 51/244/59 52/130/59
f 52/130/60 51/244/60 45/131/60
f 47/133/61 48/134/61 46/132/61
f 47/133/62 53/245/62 54/5/62
f 54/5/63 53/245/63 41/135/63
f 41/135/64 43/138/64 44/136/64
f 40/137/65 44/136/65 43/138/65
f 55/140/66 56/141/66 40/137/66
f 56/141/67 55/140/67 33/142/67
f 37/144/68 38/145/68 34/143/68
f 38/145/69 37/144/69 29/146/69
f 30/147/70 29/146/70 25/148/70
f 25/148/71 27/152/71 28/150/71
f 35/151/72 36/153/72 28/150/72
f 36/153/73 35/151/73 32/106/73
f 9/93/74 8/92/74 3/154/74
f 63/155/75 64/157/75 58/156/75
f 64/157/76 63/155/76 59/158/76
f 61/160/77 62/162/77 60/159/77
f 61/160/78 65/163/78 66/161/78
f 65/163/79 71/166/79 72/164/79
f 70/165/80 72/164/80 71/166/80
f 68/168/81 70/165/81 69/167/81
f 86/170/82 85/113/82 68/168/82
f 20/100/83 19/1/83 8/3/83
f 22/18/84 24/103/84 11/22/84
f 24/172/85 23/10/85 21/173/85
f 17/175/86 16/246/86 13/176/86
f 19/1/87 21/101/87 15/97/87
f 108/177/88 121/236/88 122/178/88
f 115/180/89 116/181/89 108/177/89
f 116/181/90 115/180/90 113/182/90
f 110/184/91 114/183/91 113/182/91
f 111/186/92 112/188/92 110/184/92
f 111/186/93 119/190/93 120/187/93
f 106/189/94 120/187/94 119/190/94
f 105/191/95 117/193/95 118/192/95
f 117/193/96 145/196/96 146/194/96
f 147/195/97 148/197/97 146/194/97
f 148/197/98 147/195/98 143/198/98
f 149/199/99 150/9/99 144/8/99
f 140/200/100 150/9/100 149/199/100
f 139/201/101 141/247/101 142/202/101
f 142/202/102 141/247/102 137/203/102
f 151/205/103 152/206/103 138/204/103
f 152/206/104 151/205/104 129/207/104
f 133/209/105 134/210/105 130/208/105
f 134/210/106 133/209/106 127/211/106
f 124/213/107 128/212/107 127/211/107
f 125/215/108 126/217/108 124/213/108
f 125/215/109 135/219/109 136/216/109
f 132/218/110 136/216/110 135/219/110
f 132/218/111 131/220/111 89/221/111
f 122/178/112 121/236/112 101/223/112
f 23/10/113 22/248/113 18/225/113
f 93/226/114 94/227/114 90/222/114
f 94/227/115 93/226/115 91/228/115
f 91/228/116 95/231/116 96/11/116
f 99/230/117 100/12/117 96/11/117
f 100/12/118 99/230/118 97/232/118
f 97/232/119 103/235/119 104/234/119
f 101/223/120 104/234/120 103/235/120
f 14/96/121 13/95/121 1/86/121
f 16/19/122 18/99/122 5/89/122
f 2/108/2 58/156/2 64/157/2
f 2/108/2 64/157/2 60/159/2
f 68/168/2 85/113/2 9/93/2
f 70/165/2 68/168/2 9/93/2
f 9/93/2 2/108/2 60/159/2
f 9/93/2 60/159/2 62/162/2
f 72/164/2 70/165/2 9/93/2
f 9/93/2 62/162/2 66/161/2
