# Blender 4.2.3 LTS
# www.blender.org
mtllib playerIndicator.mtl
o Cone
v -0.001603 -0.008514 -0.203673
v -0.041337 -0.008655 -0.199759
v -0.079545 -0.008790 -0.188169
v -0.114757 -0.008914 -0.169348
v -0.145620 -0.009024 -0.144018
v -0.170950 -0.009113 -0.113154
v -0.189771 -0.009180 -0.077942
v -0.201361 -0.009221 -0.039734
v -0.205275 -0.009235 0.000000
v -0.201361 -0.009221 0.039735
v -0.189771 -0.009180 0.077942
v -0.170950 -0.009113 0.113155
v -0.145620 -0.009024 0.144019
v -0.114757 -0.008914 0.169348
v -0.079545 -0.008790 0.188169
v -0.041337 -0.008655 0.199760
v -0.001603 -0.008514 0.203673
v 0.038132 -0.008374 0.199760
v 0.076339 -0.008238 0.188169
v 0.111551 -0.008114 0.169348
v 0.142415 -0.008005 0.144019
v 0.167744 -0.007915 0.113155
v 0.186565 -0.007848 0.077942
v 0.198155 -0.007807 0.039735
v 0.202069 -0.007794 0.000000
v 0.198155 -0.007807 -0.039734
v 0.186565 -0.007848 -0.077942
v 0.167744 -0.007915 -0.113154
v 0.142415 -0.008005 -0.144018
v 0.111551 -0.008114 -0.169348
v 0.076339 -0.008238 -0.188169
v 0.038132 -0.008374 -0.199759
v 0.001603 -0.453089 -0.000000
v -0.578650 0.221248 0.088517
v -0.578650 0.521573 0.088517
v -0.578650 0.221248 -0.088517
v -0.578650 0.521573 -0.088517
v -0.401616 0.221248 0.088517
v -0.401616 0.521573 0.088517
v -0.401616 0.221248 -0.088517
v -0.401616 0.521573 -0.088517
v -0.578650 0.620206 0.088517
v -0.578650 0.620206 -0.088517
v -0.401616 0.620206 0.088517
v -0.401616 0.620206 -0.088517
v -0.274215 0.521573 0.088517
v -0.274215 0.521573 -0.088517
v -0.274215 0.620206 0.088517
v -0.274215 0.620206 -0.088517
v -0.718380 0.521573 0.088517
v -0.718380 0.521573 -0.088517
v -0.718380 0.620206 0.088517
v -0.718380 0.620206 -0.088517
v -0.578650 0.858570 0.088517
v -0.578650 0.858570 -0.088517
v -0.718380 0.858570 0.088517
v -0.718380 0.858570 -0.088517
v -0.401616 0.875008 0.088517
v -0.401616 0.875008 -0.088517
v -0.274215 0.875008 0.088517
v -0.274215 0.875008 -0.088517
v -0.203926 0.205549 0.059009
v -0.203926 0.323567 0.059009
v -0.203926 0.205549 -0.059009
v -0.203926 0.323567 -0.059009
v -0.085908 0.205549 0.059009
v -0.085908 0.323567 0.059009
v -0.085908 0.205549 -0.059009
v -0.085908 0.323567 -0.059009
v -0.203926 0.760312 0.059009
v -0.203926 0.760312 -0.059009
v -0.085908 0.760312 0.059009
v -0.085908 0.760312 -0.059009
v -0.203926 0.871274 0.059009
v -0.203926 0.871274 -0.059009
v -0.085908 0.871274 0.059009
v -0.085908 0.871274 -0.059009
v 0.084165 0.759602 0.059009
v 0.084165 0.759602 -0.059009
v 0.084165 0.870411 0.059009
v 0.084165 0.870411 -0.059009
v 0.090810 0.205549 0.059009
v 0.090810 0.323567 0.059009
v 0.090810 0.205549 -0.059009
v 0.090810 0.323567 -0.059009
v 0.218211 0.205549 0.059009
v 0.218211 0.323567 0.059009
v 0.218211 0.205549 -0.059009
v 0.218211 0.323567 -0.059009
v 0.463511 0.206381 0.088517
v 0.218211 0.758891 0.059009
v 0.218211 0.758891 -0.059009
v 0.463511 0.206381 -0.088517
v 0.218211 0.869549 0.059009
v 0.218211 0.869549 -0.059009
v 0.640545 0.206381 0.088517
v 0.640545 0.206381 -0.088517
v 0.463511 0.314340 0.088517
v 0.463511 0.314340 -0.088517
v 0.640545 0.314340 0.088517
v 0.640545 0.314340 -0.088517
v 0.767946 0.294191 0.088517
v 0.767946 0.294191 -0.088517
v 0.767946 0.433841 0.088517
v 0.767946 0.433841 -0.088517
v 0.323781 0.294191 0.088517
v 0.323781 0.294191 -0.088517
v 0.323781 0.433841 0.088517
v 0.323781 0.433841 -0.088517
v 0.463511 0.871782 0.088517
v 0.463511 0.871782 -0.088517
v 0.323781 0.871782 0.088517
v 0.323781 0.871782 -0.088517
v 0.640545 0.862535 0.088517
v 0.640545 0.862535 -0.088517
v 0.767946 0.862535 0.088517
v 0.767946 0.862535 -0.088517
vn -0.0877 -0.4154 -0.9054
vn -0.2626 -0.4166 -0.8704
vn -0.4272 -0.4177 -0.8019
vn -0.5752 -0.4186 -0.7027
vn -0.7011 -0.4195 -0.5766
vn -0.8000 -0.4201 -0.4284
vn -0.8681 -0.4206 -0.2638
vn -0.9028 -0.4208 -0.0891
vn -0.9028 -0.4208 0.0891
vn -0.8681 -0.4206 0.2638
vn -0.8000 -0.4201 0.4284
vn -0.7011 -0.4195 0.5766
vn -0.5752 -0.4186 0.7027
vn -0.4272 -0.4177 0.8019
vn -0.2626 -0.4166 0.8704
vn -0.0877 -0.4154 0.9054
vn 0.0907 -0.4142 0.9056
vn 0.2657 -0.4131 0.8711
vn 0.4307 -0.4120 0.8030
vn 0.5792 -0.4110 0.7040
vn 0.7056 -0.4102 0.5778
vn 0.8049 -0.4095 0.4294
vn 0.8733 -0.4091 0.2645
vn 0.9082 -0.4089 0.0893
vn 0.9082 -0.4089 -0.0893
vn 0.8733 -0.4091 -0.2645
vn 0.8049 -0.4095 -0.4294
vn 0.7056 -0.4102 -0.5778
vn 0.5792 -0.4110 -0.7040
vn 0.4307 -0.4120 -0.8030
vn -0.0035 1.0000 -0.0000
vn 0.2657 -0.4131 -0.8711
vn 0.0907 -0.4142 -0.9056
vn -1.0000 -0.0000 -0.0000
vn -0.0000 -0.0000 -1.0000
vn 1.0000 -0.0000 -0.0000
vn -0.0000 -0.0000 1.0000
vn -0.0000 -1.0000 -0.0000
vn -0.0000 1.0000 -0.0000
vn 0.0051 1.0000 -0.0000
vn -0.0042 -1.0000 -0.0000
vn -0.9999 -0.0152 -0.0000
vn 0.0064 1.0000 -0.0000
vn 0.5675 -0.8234 -0.0000
vn -0.5321 -0.8467 -0.0000
vt 0.685385 0.661012
vt 0.750972 0.454219
vt 0.703353 0.666645
vt 0.720710 0.671813
vt 0.736789 0.676317
vt 0.750972 0.679986
vt 0.621011 0.186267
vt 0.751207 -0.000000
vt 0.634583 0.191862
vt 0.650218 0.197767
vt 0.667315 0.203755
vt 0.685217 0.209596
vt 0.703236 0.215065
vt 0.720680 0.219952
vt 0.736878 0.224069
vt 0.751207 0.227258
vt 0.192104 0.836081
vt 0.192104 0.610315
vt 0.206287 0.832413
vt 0.222367 0.827908
vt 0.239724 0.822740
vt 0.257692 0.817108
vt 0.275580 0.811227
vt 0.292701 0.805324
vt 0.308397 0.799626
vt 0.322065 0.794351
vt 0.621011 0.413174
vt 0.751190 0.227258
vt 0.634593 0.418737
vt 0.650234 0.424621
vt 0.667334 0.430599
vt 0.685235 0.436441
vt 0.703250 0.441923
vt 0.720686 0.446835
vt 0.736874 0.450986
vt 0.751190 0.454219
vt 0.621011 0.638255
vt 0.634679 0.643530
vt 0.650375 0.649228
vt 0.068035 0.614006
vt 0.188413 0.678350
vt 0.124069 0.798729
vt 0.667496 0.655131
vt 0.834866 0.706989
vt 0.750972 0.848467
vt 0.750972 0.706989
vt 0.144267 0.141968
vt 0.060374 0.000001
vt 0.144267 0.000000
vt 0.704905 0.821616
vt 0.621011 0.679986
vt 0.704905 0.679986
vt 0.360593 0.000001
vt 0.276700 0.141968
vt 0.276699 -0.000000
vt 0.275997 0.836081
vt 0.192104 0.919975
vt 0.192104 0.836081
vt 0.060374 0.188594
vt 0.060374 0.141969
vt 0.167787 0.802420
vt 0.083894 0.886314
vt 0.083894 0.802420
vt 0.360593 0.141969
vt 0.420967 0.188596
vt 0.360593 0.188594
vt 0.144267 0.188593
vt 0.210483 0.141967
vt 0.210483 0.188592
vt 0.276700 0.188593
vt 0.588754 0.629397
vt 0.504860 0.675911
vt 0.504860 0.629397
vt 0.588754 0.796073
vt 0.504861 0.916106
vt 0.504861 0.796073
vt 0.504860 0.916106
vt 0.565234 1.000000
vt 0.504860 1.000000
vt 0.000000 0.188596
vt 0.000000 0.141970
vt 0.835084 0.295466
vt 0.751190 0.341930
vt 0.751190 0.295466
vt 0.835084 0.341930
vt 0.210483 0.141967
vt 0.957009 0.949827
vt 0.890793 0.865934
vt 0.957009 0.865934
vt 0.322065 0.853856
vt 0.388281 0.937749
vt 0.322065 0.937749
vt 0.083894 0.802420
vt 0.000000 0.914830
vt 0.000000 0.802420
vt 0.210483 0.188592
vt 0.276700 0.301271
vt 0.210483 0.301269
vt 0.144267 0.301271
vt 0.060373 0.998724
vt -0.000000 0.914830
vt 0.060373 0.914830
vt 0.360593 0.309043
vt 0.588754 0.675911
vt 0.504860 0.796073
vt 0.000000 0.309044
vt 0.890793 0.509815
vt 0.834866 0.454219
vt 0.890793 0.454219
vt 0.621011 0.055789
vt 0.565084 0.000001
vt 0.621011 -0.000000
vt 0.834866 0.851574
vt 0.890793 0.767830
vt 0.890793 0.851574
vt 0.476894 0.314699
vt 0.420967 0.370487
vt 0.420967 0.314698
vt 0.891028 0.344162
vt 0.946955 0.400088
vt 0.891028 0.400088
vt 0.946720 0.454219
vt 0.890793 0.660184
vt 0.420967 0.576942
vt 0.476894 0.629397
vt 0.420967 0.629396
vt 0.834866 0.715558
vt 0.834866 0.509815
vt 0.476894 0.370488
vt 0.565084 0.262245
vt 0.565084 0.055790
vt 0.946955 0.200045
vt 0.891028 0.144118
vt 0.946955 0.144118
vt 0.621011 0.262244
vt 0.565084 0.314698
vt 0.476894 0.576943
vt 0.557489 0.628990
vt 0.890793 0.715558
vt 0.834866 0.767830
vt 0.887341 0.373625
vt 0.835084 0.317698
vt 0.887341 0.317698
vt 0.946955 0.063523
vt 0.484489 0.314292
vt 0.484489 0.261911
vt 0.891011 0.454219
vt 0.835084 0.373625
vt 0.891011 0.373625
vt 0.560638 0.314701
vt 0.621011 0.370491
vt 0.560638 0.370490
vt 0.481340 0.000003
vt 0.946955 0.344162
vt 0.891028 0.260418
vt 0.946955 0.260418
vt 0.891028 -0.000000
vt 0.835101 0.055656
vt 0.835101 0.000000
vt 0.891028 0.200045
vt 0.946955 0.200045
vt 0.891028 0.055656
vt 0.835101 0.260951
vt 0.420967 0.055792
vt 0.420967 0.000004
vt 0.557489 0.576609
vt 0.621011 0.628584
vt 0.481340 0.055791
vt 0.420967 0.261576
vt 0.946720 0.660184
vt 0.890793 0.865934
vt 0.890793 0.660184
vt 0.621011 0.576274
vt 0.891028 0.063523
vt 0.946955 0.000000
vt 0.420967 0.313885
vt 0.891028 0.260951
vt 0.835101 0.313136
vt 0.588754 0.713290
vt 0.420967 0.610315
vt 0.360593 0.319570
vt 0.144267 0.319568
vt 0.060374 0.366195
vt 0.060374 0.319570
vt 0.704905 0.821616
vt 0.621011 0.905510
vt 0.621011 0.821616
vt 0.360593 0.366195
vt 0.420967 0.356671
vt 0.420967 0.403297
vt 0.144267 0.366194
vt 0.210483 0.356668
vt 0.210483 0.403293
vt 0.276700 0.319568
vt 0.276699 0.366194
vt 0.835101 0.000000
vt 0.751207 0.046514
vt 0.751207 0.000000
vt 0.504860 0.629397
vt 0.420967 0.868319
vt 0.420967 0.629397
vt 0.621011 0.989403
vt 0.681501 0.905510
vt 0.681501 0.989403
vt 0.000000 0.356671
vt 0.750972 0.500683
vt 0.750972 0.454219
vt 0.834866 0.500683
vt 0.750972 0.706989
vt 0.210483 0.356668
vt 0.149992 0.970208
vt 0.083894 0.886314
vt 0.149992 0.886314
vt 0.420967 0.952213
vt 0.487183 0.868319
vt 0.487183 0.952213
vt 0.322065 0.610315
vt 0.405959 0.853856
vt 0.210483 0.403293
vt 0.276700 0.610315
vt 0.210483 0.610313
vt 0.144267 0.610315
vt 0.741875 0.905510
vt 0.681501 0.989404
vt 0.681501 0.905510
vt 0.360593 0.605945
vt 0.835101 0.046514
vt 0.751207 0.248682
vt 0.000000 0.403297
vt 0.060374 0.605945
vt 0.000000 0.605946
vt 0.105512 0.802420
vt 0.086592 0.802420
vt 0.068035 0.798729
vt 0.050554 0.791488
vt 0.034822 0.780976
vt 0.021444 0.767597
vt 0.010932 0.751865
vt 0.003691 0.734385
vt 0.000000 0.715828
vt 0.000000 0.696907
vt 0.003691 0.678350
vt 0.010932 0.660869
vt 0.021444 0.645137
vt 0.034822 0.631758
vt 0.050554 0.621246
vt 0.086592 0.610314
vt 0.105512 0.610315
vt 0.124069 0.614006
vt 0.141550 0.621246
vt 0.157281 0.631758
vt 0.170660 0.645137
vt 0.181172 0.660869
vt 0.192104 0.696907
vt 0.192104 0.715828
vt 0.188413 0.734385
vt 0.181172 0.751866
vt 0.170660 0.767597
vt 0.157282 0.780976
vt 0.141550 0.791488
vt 0.834866 0.848467
vt 0.621011 0.821616
vt 0.275997 0.919975
vt 0.167787 0.886314
vt 0.420967 0.141970
vt 0.588754 0.916106
vt 0.565234 0.916106
vt 0.835084 0.454219
vt 0.890793 0.949827
vt 0.388281 0.853856
vt 0.083894 0.914830
vt 0.210483 0.301269
vt 0.000000 0.998724
vt 0.420967 0.309044
vt 0.588754 0.796073
vt 0.060374 0.309043
vt 0.834866 0.767830
vt 0.946720 0.660184
vt 0.891028 0.200045
vt 0.621011 0.314697
vt 0.835084 0.373625
vt 0.835084 0.454219
vt 0.621011 0.314702
vt 0.946720 0.865934
vt 0.891028 0.000000
vt 0.891028 0.313136
vt 0.704905 0.905510
vt 0.504860 0.868319
vt 0.621011 0.905510
vt 0.834866 0.706989
vt 0.083894 0.970208
vt 0.420967 0.868319
vt 0.405959 0.610315
vt 0.210483 0.610313
vt 0.741875 0.989404
vt 0.420967 0.605946
vt 0.835101 0.248682
s 0
usemtl Material
f 1/1/1 33/2/1 2/3/1
f 2/3/2 33/2/2 3/4/2
f 3/4/3 33/2/3 4/5/3
f 4/5/4 33/2/4 5/6/4
f 5/7/5 33/8/5 6/9/5
f 6/9/6 33/8/6 7/10/6
f 7/10/7 33/8/7 8/11/7
f 8/11/8 33/8/8 9/12/8
f 9/12/9 33/8/9 10/13/9
f 10/13/10 33/8/10 11/14/10
f 11/14/11 33/8/11 12/15/11
f 12/15/12 33/8/12 13/16/12
f 13/17/13 33/18/13 14/19/13
f 14/19/14 33/18/14 15/20/14
f 15/20/15 33/18/15 16/21/15
f 16/21/16 33/18/16 17/22/16
f 17/22/17 33/18/17 18/23/17
f 18/23/18 33/18/18 19/24/18
f 19/24/19 33/18/19 20/25/19
f 20/25/20 33/18/20 21/26/20
f 21/27/21 33/28/21 22/29/21
f 22/29/22 33/28/22 23/30/22
f 23/30/23 33/28/23 24/31/23
f 24/31/24 33/28/24 25/32/24
f 25/32/25 33/28/25 26/33/25
f 26/33/26 33/28/26 27/34/26
f 27/34/27 33/28/27 28/35/27
f 28/35/28 33/28/28 29/36/28
f 29/37/29 33/2/29 30/38/29
f 30/38/30 33/2/30 31/39/30
f 16/40/31 24/41/31 32/42/31
f 31/39/32 33/2/32 32/43/32
f 32/43/33 33/2/33 1/1/33
f 34/44/34 37/45/34 36/46/34
f 37/47/35 40/48/35 36/49/35
f 41/50/36 38/51/36 40/52/36
f 38/53/37 35/54/37 34/55/37
f 40/56/38 34/57/38 36/58/38
f 37/47/35 45/59/35 41/60/35
f 43/61/39 44/62/39 45/63/39
f 39/64/37 48/65/37 44/66/37
f 43/67/35 51/68/35 53/69/35
f 39/64/37 42/70/37 35/54/37
f 47/71/36 48/72/36 46/73/36
f 44/74/34 59/75/34 45/76/34
f 41/77/38 46/78/38 39/79/38
f 41/60/35 49/80/35 47/81/35
f 50/82/34 53/83/34 51/84/34
f 52/85/34 57/36/34 53/83/34
f 42/70/37 50/86/37 35/54/37
f 35/87/38 51/88/38 37/89/38
f 55/90/39 56/91/39 54/92/39
f 43/93/36 54/94/36 42/95/36
f 52/96/37 54/97/37 56/98/37
f 53/69/35 55/99/35 43/67/35
f 58/100/39 61/101/39 59/102/39
f 48/65/37 58/103/37 44/66/37
f 49/104/36 60/105/36 48/72/36
f 45/59/35 61/106/35 49/80/35
f 63/107/34 64/108/34 62/109/34
f 65/110/35 68/111/35 64/112/35
f 67/113/39 85/114/39 69/115/39
f 66/116/37 63/117/37 62/118/37
f 68/119/38 62/120/38 64/121/38
f 69/122/36 72/123/36 67/109/36
f 70/124/37 76/125/37 74/126/37
f 63/107/34 71/127/34 65/128/34
f 67/129/37 70/124/37 63/117/37
f 65/110/35 73/130/35 69/131/35
f 75/132/39 76/133/39 77/134/39
f 71/135/35 77/136/35 73/130/35
f 72/137/37 80/138/37 76/125/37
f 70/139/34 75/140/34 71/127/34
f 79/141/36 80/142/36 78/143/36
f 76/133/40 81/144/40 77/134/40
f 73/130/35 81/145/35 79/146/35
f 72/147/41 79/148/41 78/149/41
f 82/150/37 87/151/37 83/152/37
f 69/131/35 84/153/35 68/111/35
f 66/116/37 83/152/37 67/129/37
f 66/154/38 84/155/38 82/156/38
f 88/157/36 87/158/36 86/159/36
f 82/156/38 88/160/38 86/161/38
f 89/162/36 91/163/36 87/158/36
f 84/153/35 89/164/35 88/165/35
f 78/166/37 94/167/37 80/138/37
f 85/168/35 92/169/35 89/164/35
f 83/170/42 79/171/42 85/172/42
f 83/152/37 91/173/37 78/166/37
f 80/174/43 95/175/43 81/144/43
f 79/146/35 95/176/35 92/169/35
f 92/177/36 94/178/36 91/163/36
f 90/179/38 97/180/38 96/181/38
f 93/182/35 101/183/35 97/184/35
f 99/185/39 100/186/39 101/187/39
f 100/188/37 102/189/37 104/190/37
f 99/191/35 107/192/35 109/193/35
f 90/194/37 100/188/37 98/195/37
f 103/196/36 104/197/36 102/198/36
f 100/199/34 115/200/34 101/201/34
f 96/202/44 103/203/44 102/204/44
f 101/183/35 103/205/35 97/184/35
f 106/108/34 109/206/34 107/207/34
f 108/208/34 113/209/34 109/206/34
f 98/195/37 106/210/37 90/194/37
f 90/211/45 107/212/45 93/213/45
f 110/214/39 113/215/39 112/216/39
f 98/217/36 111/218/36 110/90/36
f 108/219/37 110/220/37 112/221/37
f 109/193/35 111/222/35 99/191/35
f 115/223/39 116/224/39 117/225/39
f 104/190/37 114/226/37 100/188/37
f 105/227/36 116/228/36 104/197/36
f 105/229/35 115/230/35 117/231/35
f 32/42/31 1/232/31 2/233/31
f 2/233/31 3/234/31 4/235/31
f 4/235/31 5/236/31 6/237/31
f 6/237/31 7/238/31 8/239/31
f 8/239/31 9/240/31 10/241/31
f 10/241/31 11/242/31 12/243/31
f 12/243/31 13/244/31 14/245/31
f 14/245/31 15/246/31 16/40/31
f 16/40/31 17/247/31 18/248/31
f 18/248/31 19/249/31 20/250/31
f 20/250/31 21/251/31 22/252/31
f 22/252/31 23/253/31 24/41/31
f 24/41/31 25/254/31 26/255/31
f 26/255/31 27/256/31 28/257/31
f 28/257/31 29/258/31 30/259/31
f 30/259/31 31/260/31 32/42/31
f 32/42/31 2/233/31 4/235/31
f 4/235/31 6/237/31 8/239/31
f 8/239/31 10/241/31 12/243/31
f 12/243/31 14/245/31 16/40/31
f 16/40/31 18/248/31 20/250/31
f 20/250/31 22/252/31 24/41/31
f 24/41/31 26/255/31 28/257/31
f 28/257/31 30/259/31 32/42/31
f 32/42/31 4/235/31 8/239/31
f 8/239/31 12/243/31 16/40/31
f 16/40/31 20/250/31 24/41/31
f 24/41/31 28/257/31 32/42/31
f 32/42/31 8/239/31 16/40/31
f 34/44/34 35/261/34 37/45/34
f 37/47/35 41/60/35 40/48/35
f 41/50/36 39/262/36 38/51/36
f 38/53/37 39/64/37 35/54/37
f 40/56/38 38/263/38 34/57/38
f 37/47/35 43/67/35 45/59/35
f 43/61/39 42/264/39 44/62/39
f 39/64/37 46/265/37 48/65/37
f 43/67/35 37/47/35 51/68/35
f 39/64/37 44/66/37 42/70/37
f 47/71/36 49/104/36 48/72/36
f 44/74/34 58/266/34 59/75/34
f 41/77/38 47/267/38 46/78/38
f 41/60/35 45/59/35 49/80/35
f 50/82/34 52/85/34 53/83/34
f 52/85/34 56/268/34 57/36/34
f 42/70/37 52/96/37 50/86/37
f 35/87/38 50/269/38 51/88/38
f 55/90/39 57/270/39 56/91/39
f 43/93/36 55/271/36 54/94/36
f 52/96/37 42/70/37 54/97/37
f 53/69/35 57/272/35 55/99/35
f 58/100/39 60/273/39 61/101/39
f 48/65/37 60/274/37 58/103/37
f 49/104/36 61/275/36 60/105/36
f 45/59/35 59/276/35 61/106/35
f 63/107/34 65/128/34 64/108/34
f 65/110/35 69/131/35 68/111/35
f 67/113/39 83/277/39 85/114/39
f 66/116/37 67/129/37 63/117/37
f 68/119/38 66/154/38 62/120/38
f 69/122/36 73/278/36 72/123/36
f 70/124/37 72/137/37 76/125/37
f 63/107/34 70/139/34 71/127/34
f 67/129/37 72/137/37 70/124/37
f 65/110/35 71/135/35 73/130/35
f 75/132/39 74/279/39 76/133/39
f 71/135/35 75/280/35 77/136/35
f 72/137/37 78/166/37 80/138/37
f 70/139/34 74/114/34 75/140/34
f 79/141/36 81/281/36 80/142/36
f 76/133/40 80/174/40 81/144/40
f 73/130/35 77/136/35 81/145/35
f 72/147/41 73/282/41 79/148/41
f 82/150/37 86/283/37 87/151/37
f 69/131/35 85/168/35 84/153/35
f 66/116/37 82/150/37 83/152/37
f 66/154/38 68/119/38 84/155/38
f 88/157/36 89/162/36 87/158/36
f 82/156/38 84/155/38 88/160/38
f 89/162/36 92/177/36 91/163/36
f 84/153/35 85/168/35 89/164/35
f 78/166/37 91/173/37 94/167/37
f 85/168/35 79/146/35 92/169/35
f 83/170/42 78/284/42 79/171/42
f 83/152/37 87/151/37 91/173/37
f 80/174/43 94/285/43 95/175/43
f 79/146/35 81/145/35 95/176/35
f 92/177/36 95/286/36 94/178/36
f 90/179/38 93/182/38 97/180/38
f 93/182/35 99/191/35 101/183/35
f 99/185/39 98/287/39 100/186/39
f 100/188/37 96/181/37 102/189/37
f 99/191/35 93/182/35 107/192/35
f 90/194/37 96/181/37 100/188/37
f 103/196/36 105/227/36 104/197/36
f 100/199/34 114/288/34 115/200/34
f 96/202/44 97/289/44 103/203/44
f 101/183/35 105/229/35 103/205/35
f 106/108/34 108/208/34 109/206/34
f 108/208/34 112/290/34 113/209/34
f 98/195/37 108/219/37 106/210/37
f 90/211/45 106/291/45 107/212/45
f 110/214/39 111/292/39 113/215/39
f 98/217/36 99/293/36 111/218/36
f 108/219/37 98/195/37 110/220/37
f 109/193/35 113/294/35 111/222/35
f 115/223/39 114/295/39 116/224/39
f 104/190/37 116/296/37 114/226/37
f 105/227/36 117/297/36 116/228/36
f 105/229/35 101/183/35 115/230/35
